<svg width="20" height="20" viewBox="0 0 20 20" fill="none" xmlns="http://www.w3.org/2000/svg">
<path d="M10.0008 8.20078C10.2897 8.20065 10.5758 8.14362 10.8426 8.03293C11.1095 7.92225 11.352 7.76009 11.5561 7.55571C11.7603 7.35133 11.9223 7.10873 12.0327 6.84176C12.1432 6.57479 12.1999 6.28869 12.1998 5.99978C12.1997 5.71087 12.1426 5.42482 12.032 5.15795C11.9213 4.89109 11.7591 4.64864 11.5547 4.44444C11.3504 4.24024 11.1078 4.0783 10.8408 3.96786C10.5738 3.85742 10.2877 3.80065 9.9988 3.80078C9.41533 3.80105 8.85586 4.03309 8.44346 4.44585C8.03107 4.85862 7.79954 5.41831 7.7998 6.00178C7.80007 6.58526 8.03211 7.14473 8.44488 7.55712C8.85764 7.96952 9.41733 8.20105 10.0008 8.20078V8.20078ZM10.0008 11.8008C9.41706 11.8008 8.85723 12.0327 8.44446 12.4454C8.0317 12.8582 7.7998 13.418 7.7998 14.0018C7.7998 14.5855 8.0317 15.1454 8.44446 15.5581C8.85723 15.9709 9.41706 16.2028 10.0008 16.2028C10.5845 16.2028 11.1444 15.9709 11.5571 15.5581C11.9699 15.1454 12.2018 14.5855 12.2018 14.0018C12.2018 13.418 11.9699 12.8582 11.5571 12.4454C11.1444 12.0327 10.5845 11.8008 10.0008 11.8008V11.8008Z" fill="#292D32"/>
</svg>
