<svg width="18" height="19" viewBox="0 0 18 19" fill="none" xmlns="http://www.w3.org/2000/svg">
<path d="M18 14.7846L14.3949 18.3896L9.98398 13.9787L11.4854 12.4773L12.3336 13.3256L14.4288 11.2219L15.6334 12.4264L14.3949 13.6309L15.2941 14.4792L16.4986 13.2916L18 14.7846ZM4.4279 8.39719L0 3.99474L3.60509 0.389648L5.09802 1.89106L3.00283 3.99474L3.91046 4.89389L5.99717 2.79021L7.2017 3.99474L5.99717 5.19078L6.84543 6.03904L4.4279 8.39719ZM10.7474 6.84488L11.5448 7.63376L3.8426 15.3274H3.06221V14.547L10.7474 6.84488ZM13.8096 1.75534C13.5975 1.75534 13.377 1.83168 13.2073 2.00134L11.6466 3.55364L14.8275 6.73461L16.3883 5.14837C16.7191 4.81755 16.7191 4.30011 16.3883 3.95233L14.4034 2.00134C14.3256 1.92313 14.233 1.86112 14.1311 1.81889C14.0292 1.77667 13.9199 1.75507 13.8096 1.75534ZM10.7474 4.4528L1.36569 13.843V17.024H4.54665L13.9284 7.63376L10.7474 4.4528Z" fill="#7C7F84"/>
</svg>
