<svg width="18" height="18" viewBox="0 0 18 18" fill="none" xmlns="http://www.w3.org/2000/svg">
<path d="M10.0921 18L8.63893 14.5854C10.0386 14.0684 11.3492 13.373 12.5617 12.5617L10.0921 18ZM3.41456 9.36107L0 7.90788L5.43834 5.43834C4.62704 6.65082 3.93165 7.96137 3.41456 9.36107ZM15.5215 1.78306C15.7712 1.78306 15.9941 1.78306 16.1813 1.82764C16.3328 3.06686 16.1634 5.61664 13.2392 8.54086C11.7236 10.0654 9.91382 11.2333 7.88113 12.0089L5.96434 10.1367C6.78455 8.07727 7.95245 6.26746 9.45914 4.76077C11.9198 2.30015 14.1129 1.78306 15.5215 1.78306ZM15.5215 0C13.7563 0 11.0817 0.615156 8.19317 3.50371C6.24071 5.45617 5.07281 7.60476 4.31501 9.48588C4.06538 10.1545 4.23477 10.8856 4.72511 11.3848L6.62407 13.2749C6.96285 13.6137 7.41753 13.8187 7.89004 13.8187C8.0951 13.8187 8.30906 13.7652 8.51412 13.685C10.7595 12.8289 12.7982 11.5072 14.4963 9.80684C19.5423 4.76077 17.6523 0.347697 17.6523 0.347697C17.6523 0.347697 16.841 0 15.5215 0ZM11.3492 6.65082C10.6538 5.95542 10.6538 4.82318 11.3492 4.12779C12.0446 3.43239 13.1768 3.43239 13.8722 4.12779C14.5587 4.82318 14.5676 5.95542 13.8722 6.65082C13.1768 7.34621 12.0446 7.34621 11.3492 6.65082ZM3.94948 17.8306L7.19465 14.5854C6.89153 14.5052 6.59733 14.3715 6.32987 14.1842L2.69242 17.8306H3.94948ZM0.169391 17.8306H1.42645L5.67905 13.5869L4.41308 12.3299L0.169391 16.5736V17.8306ZM0.169391 15.3076L3.81575 11.6701C3.62853 11.4027 3.4948 11.1174 3.41456 10.8053L0.169391 14.0505V15.3076Z" fill="#7C7F84"/>
</svg>
